<?xml version="1.0" standalone="no"?>
<!DOCTYPE svg PUBLIC "-//W3C//DTD SVG 20010904//EN"
 "http://www.w3.org/TR/2001/REC-SVG-20010904/DTD/svg10.dtd">
<svg version="1.0" xmlns="http://www.w3.org/2000/svg"
 width="120.000000pt" height="112.000000pt" viewBox="0 0 120.000000 112.000000"
 preserveAspectRatio="xMidYMid meet">

<g transform="translate(0.000000,112.000000) scale(0.100000,-0.100000)"
fill="#000000" stroke="none">
<path d="M219 1086 c-77 -27 -132 -92 -150 -177 -7 -34 -10 -162 -7 -378 3
-316 4 -327 26 -373 26 -52 69 -93 122 -116 44 -19 581 -29 704 -14 98 13 148
46 189 122 l27 52 0 352 c0 220 -4 365 -11 390 -14 51 -91 128 -145 144 -60
18 -705 16 -755 -2z m612 -213 c158 -81 186 -296 53 -413 -63 -55 -94 -63
-256 -68 l-147 -4 -12 -52 c-15 -65 -34 -103 -58 -116 -25 -13 -148 -13 -156
-1 -9 16 76 345 93 359 11 9 69 12 206 12 162 0 192 2 208 17 24 21 23 54 -2
81 -20 21 -28 22 -215 22 -199 0 -233 5 -272 42 -22 21 -42 115 -28 137 4 7
92 11 269 11 l262 0 55 -27z"/>
</g>
</svg>
